<svg width="218" height="164" viewBox="0 0 218 164" fill="none" xmlns="http://www.w3.org/2000/svg">
<g clip-path="url(#clip0_0_7817)">
<g clip-path="url(#clip1_0_7817)">
<rect width="218" height="164" rx="6" fill="#1E5EFF"/>
<mask id="mask0_0_7817" style="mask-type:luminance" maskUnits="userSpaceOnUse" x="0" y="0" width="218" height="164">
<rect width="218" height="164" rx="6" fill="white"/>
</mask>
<g mask="url(#mask0_0_7817)">
<path fill-rule="evenodd" clip-rule="evenodd" d="M170 83H226V135H174C171.791 135 170 133.209 170 131V83Z" fill="#1645BC"/>
<path fill-rule="evenodd" clip-rule="evenodd" d="M226.5 83L214 97H157L169.5 83H226.5Z" fill="#4F81FF"/>
<circle cx="212" cy="51" r="22" fill="#1645BC"/>
<path fill-rule="evenodd" clip-rule="evenodd" d="M211.174 44.6145L211.897 45.6831L212.62 44.6145C214.832 42.4361 217.891 42.5015 220.159 44.5872L220.306 44.7262C222.517 46.9046 222.564 50.4076 220.447 52.6423L220.306 52.7863L211.897 61L203.694 52.7863C201.435 50.5605 201.435 46.9519 203.694 44.7262C205.954 42.5005 208.915 42.3887 211.174 44.6145Z" fill="#4F81FF"/>
</g>
</g>
<path d="M25.233 67V56.8182H31.3778V57.9119H26.4659V61.3523H31.0597V62.446H26.4659V65.9062H31.4574V67H25.233ZM34.3161 59.3636L36.1456 62.4858L37.9751 59.3636H39.3274L36.8615 63.1818L39.3274 67H37.9751L36.1456 64.0369L34.3161 67H32.9638L35.3899 63.1818L32.9638 59.3636H34.3161ZM41.0016 69.8636V59.3636H42.1351V60.5767H42.2743C42.3605 60.4441 42.4798 60.2751 42.6323 60.0696C42.7881 59.8608 43.0101 59.6752 43.2985 59.5128C43.5901 59.3471 43.9846 59.2642 44.4817 59.2642C45.1247 59.2642 45.6915 59.425 46.182 59.7464C46.6725 60.0679 47.0553 60.5237 47.3304 61.1136C47.6055 61.7036 47.7431 62.3996 47.7431 63.2017C47.7431 64.0104 47.6055 64.7114 47.3304 65.3047C47.0553 65.8946 46.6742 66.352 46.187 66.6768C45.6998 66.9983 45.138 67.1591 44.5016 67.1591C44.0111 67.1591 43.6183 67.0779 43.3233 66.9155C43.0283 66.7498 42.8013 66.5625 42.6422 66.3537C42.4831 66.1416 42.3605 65.9659 42.2743 65.8267H42.1749V69.8636H41.0016ZM42.155 63.1818C42.155 63.7585 42.2395 64.2673 42.4086 64.7081C42.5776 65.1456 42.8245 65.4886 43.1493 65.7372C43.4741 65.9825 43.8719 66.1051 44.3425 66.1051C44.833 66.1051 45.2424 65.9759 45.5705 65.7173C45.9019 65.4555 46.1505 65.1042 46.3162 64.6634C46.4853 64.2192 46.5698 63.7254 46.5698 63.1818C46.5698 62.6449 46.4869 62.161 46.3212 61.7301C46.1588 61.2959 45.9119 60.9529 45.5804 60.701C45.2523 60.4458 44.8397 60.3182 44.3425 60.3182C43.8652 60.3182 43.4642 60.4392 43.1394 60.6811C42.8146 60.9197 42.5693 61.2545 42.4036 61.6854C42.2379 62.1129 42.155 62.6117 42.155 63.1818ZM50.7061 56.8182V67H49.5328V56.8182H50.7061ZM55.9574 67.1591C55.268 67.1591 54.6631 66.995 54.1428 66.6669C53.6257 66.3388 53.2214 65.8797 52.9297 65.2898C52.6413 64.6998 52.4972 64.0104 52.4972 63.2216C52.4972 62.4261 52.6413 61.7318 52.9297 61.1385C53.2214 60.5452 53.6257 60.0845 54.1428 59.7564C54.6631 59.4283 55.268 59.2642 55.9574 59.2642C56.6468 59.2642 57.25 59.4283 57.767 59.7564C58.2874 60.0845 58.6918 60.5452 58.9801 61.1385C59.2718 61.7318 59.4176 62.4261 59.4176 63.2216C59.4176 64.0104 59.2718 64.6998 58.9801 65.2898C58.6918 65.8797 58.2874 66.3388 57.767 66.6669C57.25 66.995 56.6468 67.1591 55.9574 67.1591ZM55.9574 66.1051C56.4811 66.1051 56.9119 65.9709 57.25 65.7024C57.5881 65.4339 57.8383 65.081 58.0007 64.6435C58.1631 64.206 58.2443 63.732 58.2443 63.2216C58.2443 62.7112 58.1631 62.2356 58.0007 61.7947C57.8383 61.3539 57.5881 60.9976 57.25 60.7259C56.9119 60.4541 56.4811 60.3182 55.9574 60.3182C55.4337 60.3182 55.0028 60.4541 54.6648 60.7259C54.3267 60.9976 54.0765 61.3539 53.9141 61.7947C53.7517 62.2356 53.6705 62.7112 53.6705 63.2216C53.6705 63.732 53.7517 64.206 53.9141 64.6435C54.0765 65.081 54.3267 65.4339 54.6648 65.7024C55.0028 65.9709 55.4337 66.1051 55.9574 66.1051ZM61.2086 67V59.3636H62.3422V60.517H62.4217C62.5609 60.1392 62.8128 59.8326 63.1774 59.5973C63.542 59.362 63.9529 59.2443 64.4103 59.2443C64.4965 59.2443 64.6042 59.246 64.7335 59.2493C64.8627 59.2526 64.9605 59.2576 65.0268 59.2642V60.4574C64.987 60.4474 64.8959 60.4325 64.7534 60.4126C64.6142 60.3894 64.4667 60.3778 64.3109 60.3778C63.9397 60.3778 63.6083 60.4557 63.3166 60.6115C63.0282 60.764 62.7995 60.9761 62.6305 61.2479C62.4648 61.5163 62.3819 61.8229 62.3819 62.1676V67H61.2086ZM69.3869 67.1591C68.6511 67.1591 68.0164 66.9967 67.4828 66.6719C66.9525 66.3438 66.5431 65.8864 66.2548 65.2997C65.9698 64.7098 65.8272 64.0237 65.8272 63.2415C65.8272 62.4593 65.9698 61.7699 66.2548 61.1733C66.5431 60.5734 66.9442 60.1061 67.4579 59.7713C67.975 59.4332 68.5782 59.2642 69.2676 59.2642C69.6653 59.2642 70.0581 59.3305 70.4458 59.4631C70.8336 59.5956 71.1866 59.8111 71.5048 60.1094C71.823 60.4044 72.0765 60.7955 72.2654 61.2827C72.4544 61.7699 72.5488 62.3698 72.5488 63.0824V63.5795H66.6625V62.5653H71.3556C71.3556 62.1345 71.2695 61.75 71.0971 61.4119C70.9281 61.0739 70.6861 60.8071 70.3713 60.6115C70.0597 60.416 69.6918 60.3182 69.2676 60.3182C68.8002 60.3182 68.3959 60.4342 68.0545 60.6662C67.7164 60.8949 67.4563 61.1932 67.274 61.5611C67.0917 61.929 67.0005 62.3234 67.0005 62.7443V63.4205C67.0005 63.9972 67.1 64.486 67.2988 64.8871C67.501 65.2848 67.7811 65.5881 68.139 65.7969C68.497 66.0024 68.9129 66.1051 69.3869 66.1051C69.6951 66.1051 69.9735 66.062 70.2221 65.9759C70.474 65.8864 70.6911 65.7538 70.8734 65.5781C71.0557 65.3991 71.1966 65.1771 71.296 64.9119L72.4295 65.2301C72.3102 65.6146 72.1097 65.9527 71.8279 66.2443C71.5462 66.5327 71.1982 66.758 70.7839 66.9205C70.3696 67.0795 69.9039 67.1591 69.3869 67.1591ZM81.3734 67.1591C80.684 67.1591 80.0791 66.995 79.5588 66.6669C79.0417 66.3388 78.6374 65.8797 78.3457 65.2898C78.0574 64.6998 77.9132 64.0104 77.9132 63.2216C77.9132 62.4261 78.0574 61.7318 78.3457 61.1385C78.6374 60.5452 79.0417 60.0845 79.5588 59.7564C80.0791 59.4283 80.684 59.2642 81.3734 59.2642C82.0628 59.2642 82.666 59.4283 83.1831 59.7564C83.7034 60.0845 84.1078 60.5452 84.3961 61.1385C84.6878 61.7318 84.8336 62.4261 84.8336 63.2216C84.8336 64.0104 84.6878 64.6998 84.3961 65.2898C84.1078 65.8797 83.7034 66.3388 83.1831 66.6669C82.666 66.995 82.0628 67.1591 81.3734 67.1591ZM81.3734 66.1051C81.8971 66.1051 82.3279 65.9709 82.666 65.7024C83.0041 65.4339 83.2543 65.081 83.4167 64.6435C83.5791 64.206 83.6603 63.732 83.6603 63.2216C83.6603 62.7112 83.5791 62.2356 83.4167 61.7947C83.2543 61.3539 83.0041 60.9976 82.666 60.7259C82.3279 60.4541 81.8971 60.3182 81.3734 60.3182C80.8497 60.3182 80.4189 60.4541 80.0808 60.7259C79.7427 60.9976 79.4925 61.3539 79.3301 61.7947C79.1677 62.2356 79.0865 62.7112 79.0865 63.2216C79.0865 63.732 79.1677 64.206 79.3301 64.6435C79.4925 65.081 79.7427 65.4339 80.0808 65.7024C80.4189 65.9709 80.8497 66.1051 81.3734 66.1051ZM91.4371 63.8778V59.3636H92.6104V67H91.4371V65.7074H91.3576C91.1786 66.0952 90.9002 66.425 90.5224 66.6967C90.1445 66.9652 89.6673 67.0994 89.0906 67.0994C88.6133 67.0994 88.189 66.995 87.8178 66.7862C87.4466 66.5741 87.1549 66.2559 86.9428 65.8317C86.7307 65.4041 86.6246 64.8655 86.6246 64.2159V59.3636H87.7979V64.1364C87.7979 64.6932 87.9537 65.1373 88.2653 65.4688C88.5801 65.8002 88.9812 65.9659 89.4684 65.9659C89.7601 65.9659 90.0567 65.8913 90.3583 65.7422C90.6632 65.593 90.9184 65.3643 91.1239 65.0561C91.3327 64.7479 91.4371 64.3551 91.4371 63.8778ZM94.7594 67V59.3636H95.8929V60.517H95.9725C96.1117 60.1392 96.3636 59.8326 96.7282 59.5973C97.0927 59.362 97.5037 59.2443 97.9611 59.2443C98.0473 59.2443 98.155 59.246 98.2843 59.2493C98.4135 59.2526 98.5113 59.2576 98.5776 59.2642V60.4574C98.5378 60.4474 98.4467 60.4325 98.3042 60.4126C98.165 60.3894 98.0175 60.3778 97.8617 60.3778C97.4905 60.3778 97.159 60.4557 96.8674 60.6115C96.579 60.764 96.3503 60.9761 96.1813 61.2479C96.0156 61.5163 95.9327 61.8229 95.9327 62.1676V67H94.7594ZM103.906 67V59.3636H105.039V60.5568H105.139C105.298 60.1491 105.555 59.8326 105.909 59.6072C106.264 59.3786 106.69 59.2642 107.187 59.2642C107.691 59.2642 108.11 59.3786 108.445 59.6072C108.783 59.8326 109.047 60.1491 109.235 60.5568H109.315C109.511 60.1624 109.804 59.8492 110.195 59.6172C110.586 59.3819 111.055 59.2642 111.602 59.2642C112.285 59.2642 112.843 59.478 113.277 59.9055C113.712 60.3298 113.929 60.991 113.929 61.8892V67H112.755V61.8892C112.755 61.3258 112.601 60.9231 112.293 60.6811C111.985 60.4392 111.622 60.3182 111.204 60.3182C110.667 60.3182 110.251 60.4806 109.956 60.8054C109.661 61.1269 109.514 61.5346 109.514 62.0284V67H108.321V61.7699C108.321 61.3357 108.18 60.986 107.898 60.7209C107.616 60.4524 107.253 60.3182 106.809 60.3182C106.504 60.3182 106.219 60.3994 105.954 60.5618C105.692 60.7242 105.48 60.9496 105.318 61.2379C105.159 61.523 105.079 61.8527 105.079 62.2273V67H103.906ZM118.321 67.179C117.837 67.179 117.398 67.0878 117.004 66.9055C116.609 66.7199 116.296 66.4531 116.064 66.1051C115.832 65.7538 115.716 65.3295 115.716 64.8324C115.716 64.3949 115.802 64.0402 115.974 63.7685C116.147 63.4934 116.377 63.2779 116.665 63.1222C116.954 62.9664 117.272 62.8504 117.62 62.7741C117.971 62.6946 118.324 62.6316 118.679 62.5852C119.143 62.5256 119.519 62.4808 119.808 62.451C120.099 62.4179 120.311 62.3632 120.444 62.2869C120.58 62.2107 120.648 62.0781 120.648 61.8892V61.8494C120.648 61.3589 120.513 60.9777 120.245 60.706C119.98 60.4342 119.577 60.2983 119.037 60.2983C118.477 60.2983 118.038 60.4209 117.719 60.6662C117.401 60.9115 117.178 61.1733 117.048 61.4517L115.935 61.054C116.134 60.59 116.399 60.2287 116.73 59.9702C117.065 59.7083 117.429 59.526 117.824 59.4233C118.222 59.3172 118.613 59.2642 118.997 59.2642C119.242 59.2642 119.524 59.294 119.842 59.3537C120.164 59.41 120.474 59.5277 120.772 59.7067C121.074 59.8857 121.324 60.1558 121.523 60.517C121.722 60.8783 121.821 61.3622 121.821 61.9688V67H120.648V65.9659H120.588C120.509 66.1316 120.376 66.3089 120.19 66.4979C120.005 66.6868 119.758 66.8475 119.45 66.9801C119.141 67.1127 118.765 67.179 118.321 67.179ZM118.5 66.125C118.964 66.125 119.355 66.0339 119.673 65.8516C119.995 65.6693 120.237 65.4339 120.399 65.1456C120.565 64.8572 120.648 64.554 120.648 64.2358V63.1619C120.598 63.2216 120.489 63.2763 120.32 63.326C120.154 63.3724 119.962 63.4138 119.743 63.4503C119.527 63.4834 119.317 63.5133 119.112 63.5398C118.909 63.563 118.745 63.5829 118.619 63.5994C118.314 63.6392 118.029 63.7038 117.764 63.7933C117.502 63.8795 117.29 64.0104 117.128 64.1861C116.969 64.3584 116.889 64.5937 116.889 64.892C116.889 65.2997 117.04 65.608 117.342 65.8168C117.647 66.0223 118.033 66.125 118.5 66.125ZM123.963 67V59.3636H125.096V60.517H125.176C125.315 60.1392 125.567 59.8326 125.931 59.5973C126.296 59.362 126.707 59.2443 127.164 59.2443C127.25 59.2443 127.358 59.246 127.487 59.2493C127.617 59.2526 127.714 59.2576 127.781 59.2642V60.4574C127.741 60.4474 127.65 60.4325 127.507 60.4126C127.368 60.3894 127.221 60.3778 127.065 60.3778C126.694 60.3778 126.362 60.4557 126.07 60.6115C125.782 60.764 125.553 60.9761 125.384 61.2479C125.219 61.5163 125.136 61.8229 125.136 62.1676V67H123.963ZM130.265 64.2159L130.245 62.7642H130.484L133.825 59.3636H135.277L131.717 62.9631H131.618L130.265 64.2159ZM129.172 67V56.8182H130.345V67H129.172ZM134.024 67L131.041 63.2216L131.876 62.4062L135.515 67H134.024ZM139.674 67.1591C138.938 67.1591 138.304 66.9967 137.77 66.6719C137.24 66.3438 136.83 65.8864 136.542 65.2997C136.257 64.7098 136.114 64.0237 136.114 63.2415C136.114 62.4593 136.257 61.7699 136.542 61.1733C136.83 60.5734 137.231 60.1061 137.745 59.7713C138.262 59.4332 138.865 59.2642 139.555 59.2642C139.952 59.2642 140.345 59.3305 140.733 59.4631C141.121 59.5956 141.474 59.8111 141.792 60.1094C142.11 60.4044 142.364 60.7955 142.553 61.2827C142.741 61.7699 142.836 62.3698 142.836 63.0824V63.5795H136.95V62.5653H141.643C141.643 62.1345 141.557 61.75 141.384 61.4119C141.215 61.0739 140.973 60.8071 140.658 60.6115C140.347 60.416 139.979 60.3182 139.555 60.3182C139.087 60.3182 138.683 60.4342 138.342 60.6662C138.004 60.8949 137.743 61.1932 137.561 61.5611C137.379 61.929 137.288 62.3234 137.288 62.7443V63.4205C137.288 63.9972 137.387 64.486 137.586 64.8871C137.788 65.2848 138.068 65.5881 138.426 65.7969C138.784 66.0024 139.2 66.1051 139.674 66.1051C139.982 66.1051 140.261 66.062 140.509 65.9759C140.761 65.8864 140.978 65.7538 141.161 65.5781C141.343 65.3991 141.484 65.1771 141.583 64.9119L142.717 65.2301C142.597 65.6146 142.397 65.9527 142.115 66.2443C141.833 66.5327 141.485 66.758 141.071 66.9205C140.657 67.0795 140.191 67.1591 139.674 67.1591ZM147.942 59.3636V60.358H143.984V59.3636H147.942ZM145.138 57.5341H146.311V64.8125C146.311 65.1439 146.359 65.3925 146.455 65.5582C146.555 65.7206 146.681 65.83 146.833 65.8864C146.989 65.9394 147.153 65.9659 147.325 65.9659C147.455 65.9659 147.561 65.9593 147.643 65.946C147.726 65.9295 147.793 65.9162 147.842 65.9062L148.081 66.9602C148.001 66.9901 147.89 67.0199 147.748 67.0497C147.605 67.0829 147.425 67.0994 147.206 67.0994C146.875 67.0994 146.55 67.0282 146.232 66.8857C145.917 66.7431 145.655 66.526 145.446 66.2344C145.241 65.9427 145.138 65.5748 145.138 65.1307V57.5341ZM149.707 67V59.3636H150.88V67H149.707ZM150.303 58.0909C150.075 58.0909 149.877 58.013 149.712 57.8572C149.549 57.7015 149.468 57.5142 149.468 57.2955C149.468 57.0767 149.549 56.8894 149.712 56.7337C149.877 56.5779 150.075 56.5 150.303 56.5C150.532 56.5 150.728 56.5779 150.89 56.7337C151.056 56.8894 151.138 57.0767 151.138 57.2955C151.138 57.5142 151.056 57.7015 150.89 57.8572C150.728 58.013 150.532 58.0909 150.303 58.0909ZM154.202 62.4062V67H153.029V59.3636H154.162V60.5568H154.262C154.441 60.169 154.713 59.8575 155.077 59.6222C155.442 59.3835 155.912 59.2642 156.489 59.2642C157.006 59.2642 157.459 59.3703 157.846 59.5824C158.234 59.7912 158.536 60.1094 158.751 60.5369C158.967 60.9612 159.074 61.4981 159.074 62.1477V67H157.901V62.2273C157.901 61.6274 157.745 61.16 157.434 60.8253C157.122 60.4872 156.695 60.3182 156.151 60.3182C155.777 60.3182 155.442 60.3994 155.147 60.5618C154.855 60.7242 154.625 60.9612 154.456 61.2727C154.287 61.5843 154.202 61.9621 154.202 62.4062ZM164.301 70.0227C163.734 70.0227 163.247 69.9498 162.839 69.804C162.431 69.6615 162.092 69.4725 161.82 69.2372C161.551 69.0052 161.338 68.7566 161.179 68.4915L162.113 67.8352C162.219 67.9744 162.354 68.1335 162.516 68.3125C162.678 68.4948 162.9 68.6522 163.182 68.7848C163.467 68.9207 163.84 68.9886 164.301 68.9886C164.917 68.9886 165.426 68.8395 165.827 68.5412C166.228 68.2429 166.429 67.7756 166.429 67.1392V65.5881H166.329C166.243 65.7273 166.12 65.8996 165.961 66.1051C165.806 66.3073 165.58 66.4879 165.285 66.647C164.993 66.8028 164.599 66.8807 164.102 66.8807C163.485 66.8807 162.932 66.7348 162.441 66.4432C161.954 66.1515 161.568 65.7273 161.283 65.1705C161.001 64.6136 160.86 63.9375 160.86 63.142C160.86 62.3598 160.998 61.6787 161.273 61.0987C161.548 60.5154 161.931 60.0646 162.422 59.7464C162.912 59.425 163.479 59.2642 164.122 59.2642C164.619 59.2642 165.013 59.3471 165.305 59.5128C165.6 59.6752 165.825 59.8608 165.981 60.0696C166.14 60.2751 166.263 60.4441 166.349 60.5767H166.468V59.3636H167.602V67.2188C167.602 67.875 167.453 68.4086 167.154 68.8196C166.859 69.2339 166.462 69.5372 165.961 69.7294C165.464 69.925 164.911 70.0227 164.301 70.0227ZM164.261 65.8267C164.732 65.8267 165.129 65.719 165.454 65.5036C165.779 65.2881 166.026 64.9782 166.195 64.5739C166.364 64.1695 166.449 63.6856 166.449 63.1222C166.449 62.572 166.366 62.0864 166.2 61.6655C166.034 61.2446 165.789 60.9148 165.464 60.6761C165.139 60.4375 164.738 60.3182 164.261 60.3182C163.764 60.3182 163.35 60.4441 163.018 60.696C162.69 60.9479 162.443 61.286 162.277 61.7102C162.115 62.1345 162.034 62.6051 162.034 63.1222C162.034 63.6525 162.117 64.1214 162.282 64.5291C162.451 64.9335 162.7 65.2517 163.028 65.4837C163.359 65.7124 163.77 65.8267 164.261 65.8267ZM30.483 81.0739L29.429 81.3722C29.3627 81.1965 29.2649 81.0258 29.1357 80.8601C29.0097 80.6911 28.8374 80.5518 28.6186 80.4425C28.3999 80.3331 28.1198 80.2784 27.7784 80.2784C27.3111 80.2784 26.9216 80.3861 26.6101 80.6016C26.3018 80.8137 26.1477 81.0838 26.1477 81.4119C26.1477 81.7036 26.2538 81.9339 26.4659 82.103C26.678 82.272 27.0095 82.4129 27.4602 82.5256L28.5938 82.804C29.2765 82.9697 29.7853 83.2232 30.12 83.5646C30.4548 83.9027 30.6222 84.3385 30.6222 84.8722C30.6222 85.3097 30.4962 85.7008 30.2443 86.0455C29.9957 86.3902 29.6477 86.6619 29.2003 86.8608C28.7528 87.0597 28.2325 87.1591 27.6392 87.1591C26.8603 87.1591 26.2157 86.9901 25.7053 86.652C25.1948 86.3139 24.8717 85.8201 24.7358 85.1705L25.8494 84.892C25.9555 85.303 26.156 85.6113 26.451 85.8168C26.7493 86.0223 27.1387 86.125 27.6193 86.125C28.1662 86.125 28.6004 86.009 28.9219 85.777C29.2467 85.5417 29.4091 85.2599 29.4091 84.9318C29.4091 84.6667 29.3163 84.4446 29.1307 84.2656C28.9451 84.0833 28.66 83.9474 28.2756 83.858L27.0028 83.5597C26.3035 83.3939 25.7898 83.1371 25.4616 82.7891C25.1368 82.4377 24.9744 81.9986 24.9744 81.4716C24.9744 81.0407 25.0954 80.6596 25.3374 80.3281C25.5826 79.9967 25.9157 79.7365 26.3366 79.5476C26.7609 79.3587 27.2415 79.2642 27.7784 79.2642C28.5341 79.2642 29.1274 79.4299 29.5582 79.7614C29.9924 80.0928 30.3007 80.5303 30.483 81.0739ZM35.4906 87.1591C34.8012 87.1591 34.1963 86.995 33.676 86.6669C33.1589 86.3388 32.7546 85.8797 32.4629 85.2898C32.1745 84.6998 32.0304 84.0104 32.0304 83.2216C32.0304 82.4261 32.1745 81.7318 32.4629 81.1385C32.7546 80.5452 33.1589 80.0845 33.676 79.7564C34.1963 79.4283 34.8012 79.2642 35.4906 79.2642C36.18 79.2642 36.7832 79.4283 37.3002 79.7564C37.8206 80.0845 38.225 80.5452 38.5133 81.1385C38.805 81.7318 38.9508 82.4261 38.9508 83.2216C38.9508 84.0104 38.805 84.6998 38.5133 85.2898C38.225 85.8797 37.8206 86.3388 37.3002 86.6669C36.7832 86.995 36.18 87.1591 35.4906 87.1591ZM35.4906 86.1051C36.0143 86.1051 36.4451 85.9709 36.7832 85.7024C37.1213 85.4339 37.3715 85.081 37.5339 84.6435C37.6963 84.206 37.7775 83.732 37.7775 83.2216C37.7775 82.7112 37.6963 82.2356 37.5339 81.7947C37.3715 81.3539 37.1213 80.9976 36.7832 80.7259C36.4451 80.4541 36.0143 80.3182 35.4906 80.3182C34.9669 80.3182 34.536 80.4541 34.198 80.7259C33.8599 80.9976 33.6097 81.3539 33.4473 81.7947C33.2849 82.2356 33.2037 82.7112 33.2037 83.2216C33.2037 83.732 33.2849 84.206 33.4473 84.6435C33.6097 85.081 33.8599 85.4339 34.198 85.7024C34.536 85.9709 34.9669 86.1051 35.4906 86.1051ZM41.9151 76.8182V87H40.7418V76.8182H41.9151ZM48.8766 83.8778V79.3636H50.0499V87H48.8766V85.7074H48.7971C48.6181 86.0952 48.3397 86.425 47.9618 86.6967C47.584 86.9652 47.1067 87.0994 46.53 87.0994C46.0527 87.0994 45.6285 86.995 45.2573 86.7862C44.8861 86.5741 44.5944 86.2559 44.3823 85.8317C44.1702 85.4041 44.0641 84.8655 44.0641 84.2159V79.3636H45.2374V84.1364C45.2374 84.6932 45.3932 85.1373 45.7047 85.4688C46.0196 85.8002 46.4206 85.9659 46.9078 85.9659C47.1995 85.9659 47.4962 85.8913 47.7978 85.7422C48.1027 85.593 48.3579 85.3643 48.5634 85.0561C48.7722 84.7479 48.8766 84.3551 48.8766 83.8778ZM55.5199 79.3636V80.358H51.5625V79.3636H55.5199ZM52.7159 77.5341H53.8892V84.8125C53.8892 85.1439 53.9373 85.3925 54.0334 85.5582C54.1328 85.7206 54.2588 85.83 54.4112 85.8864C54.567 85.9394 54.7311 85.9659 54.9034 85.9659C55.0327 85.9659 55.1387 85.9593 55.2216 85.946C55.3045 85.9295 55.3707 85.9162 55.4205 85.9062L55.6591 86.9602C55.5795 86.9901 55.4685 87.0199 55.326 87.0497C55.1835 87.0829 55.0028 87.0994 54.7841 87.0994C54.4527 87.0994 54.1278 87.0282 53.8097 86.8857C53.4948 86.7431 53.233 86.526 53.0241 86.2344C52.8187 85.9427 52.7159 85.5748 52.7159 85.1307V77.5341ZM57.2848 87V79.3636H58.4581V87H57.2848ZM57.8814 78.0909C57.6527 78.0909 57.4555 78.013 57.2898 77.8572C57.1274 77.7015 57.0462 77.5142 57.0462 77.2955C57.0462 77.0767 57.1274 76.8894 57.2898 76.7337C57.4555 76.5779 57.6527 76.5 57.8814 76.5C58.1101 76.5 58.3056 76.5779 58.468 76.7337C58.6338 76.8894 58.7166 77.0767 58.7166 77.2955C58.7166 77.5142 58.6338 77.7015 58.468 77.8572C58.3056 78.013 58.1101 78.0909 57.8814 78.0909ZM63.7093 87.1591C63.0199 87.1591 62.4151 86.995 61.8947 86.6669C61.3777 86.3388 60.9733 85.8797 60.6816 85.2898C60.3933 84.6998 60.2491 84.0104 60.2491 83.2216C60.2491 82.4261 60.3933 81.7318 60.6816 81.1385C60.9733 80.5452 61.3777 80.0845 61.8947 79.7564C62.4151 79.4283 63.0199 79.2642 63.7093 79.2642C64.3987 79.2642 65.002 79.4283 65.519 79.7564C66.0394 80.0845 66.4437 80.5452 66.7321 81.1385C67.0237 81.7318 67.1696 82.4261 67.1696 83.2216C67.1696 84.0104 67.0237 84.6998 66.7321 85.2898C66.4437 85.8797 66.0394 86.3388 65.519 86.6669C65.002 86.995 64.3987 87.1591 63.7093 87.1591ZM63.7093 86.1051C64.233 86.1051 64.6639 85.9709 65.002 85.7024C65.34 85.4339 65.5903 85.081 65.7527 84.6435C65.9151 84.206 65.9963 83.732 65.9963 83.2216C65.9963 82.7112 65.9151 82.2356 65.7527 81.7947C65.5903 81.3539 65.34 80.9976 65.002 80.7259C64.6639 80.4541 64.233 80.3182 63.7093 80.3182C63.1857 80.3182 62.7548 80.4541 62.4167 80.7259C62.0787 80.9976 61.8284 81.3539 61.666 81.7947C61.5036 82.2356 61.4224 82.7112 61.4224 83.2216C61.4224 83.732 61.5036 84.206 61.666 84.6435C61.8284 85.081 62.0787 85.4339 62.4167 85.7024C62.7548 85.9709 63.1857 86.1051 63.7093 86.1051ZM70.1339 82.4062V87H68.9606V79.3636H70.0941V80.5568H70.1935C70.3725 80.169 70.6443 79.8575 71.0089 79.6222C71.3735 79.3835 71.8441 79.2642 72.4208 79.2642C72.9379 79.2642 73.3903 79.3703 73.7781 79.5824C74.1658 79.7912 74.4674 80.1094 74.6829 80.5369C74.8983 80.9612 75.006 81.4981 75.006 82.1477V87H73.8327V82.2273C73.8327 81.6274 73.677 81.16 73.3654 80.8253C73.0539 80.4872 72.6263 80.3182 72.0827 80.3182C71.7082 80.3182 71.3735 80.3994 71.0785 80.5618C70.7868 80.7242 70.5565 80.9612 70.3874 81.2727C70.2184 81.5843 70.1339 81.9621 70.1339 82.4062ZM82.5591 81.0739L81.5051 81.3722C81.4389 81.1965 81.3411 81.0258 81.2118 80.8601C81.0859 80.6911 80.9135 80.5518 80.6948 80.4425C80.476 80.3331 80.196 80.2784 79.8546 80.2784C79.3873 80.2784 78.9978 80.3861 78.6863 80.6016C78.378 80.8137 78.2239 81.0838 78.2239 81.4119C78.2239 81.7036 78.33 81.9339 78.5421 82.103C78.7542 82.272 79.0856 82.4129 79.5364 82.5256L80.6699 82.804C81.3527 82.9697 81.8614 83.2232 82.1962 83.5646C82.531 83.9027 82.6983 84.3385 82.6983 84.8722C82.6983 85.3097 82.5724 85.7008 82.3205 86.0455C82.0719 86.3902 81.7239 86.6619 81.2765 86.8608C80.829 87.0597 80.3087 87.1591 79.7154 87.1591C78.9365 87.1591 78.2918 86.9901 77.7814 86.652C77.271 86.3139 76.9479 85.8201 76.812 85.1705L77.9256 84.892C78.0317 85.303 78.2322 85.6113 78.5272 85.8168C78.8255 86.0223 79.2149 86.125 79.6955 86.125C80.2424 86.125 80.6766 86.009 80.998 85.777C81.3229 85.5417 81.4853 85.2599 81.4853 84.9318C81.4853 84.6667 81.3925 84.4446 81.2069 84.2656C81.0212 84.0833 80.7362 83.9474 80.3517 83.858L79.079 83.5597C78.3797 83.3939 77.8659 83.1371 77.5378 82.7891C77.213 82.4377 77.0506 81.9986 77.0506 81.4716C77.0506 81.0407 77.1716 80.6596 77.4135 80.3281C77.6588 79.9967 77.9919 79.7365 78.4128 79.5476C78.8371 79.3587 79.3176 79.2642 79.8546 79.2642C80.6103 79.2642 81.2035 79.4299 81.6344 79.7614C82.0686 80.0928 82.3768 80.5303 82.5591 81.0739Z" fill="white"/>
<path d="M32.7273 34.125C32.6477 33.8485 32.536 33.6042 32.392 33.392C32.2481 33.1761 32.072 32.9943 31.8636 32.8466C31.6591 32.6951 31.4242 32.5795 31.1591 32.5C30.8977 32.4205 30.608 32.3807 30.2898 32.3807C29.6951 32.3807 29.1723 32.5284 28.7216 32.8239C28.2746 33.1193 27.9261 33.5492 27.6761 34.1136C27.4261 34.6742 27.3011 35.3598 27.3011 36.1705C27.3011 36.9811 27.4242 37.6705 27.6705 38.2386C27.9167 38.8068 28.2652 39.2405 28.7159 39.5398C29.1667 39.8352 29.6989 39.983 30.3125 39.983C30.8693 39.983 31.3447 39.8845 31.7386 39.6875C32.1364 39.4867 32.4394 39.2045 32.6477 38.8409C32.8598 38.4773 32.9659 38.0473 32.9659 37.5511L33.4659 37.625H30.4659V35.7727H35.3352V37.2386C35.3352 38.2614 35.1193 39.1402 34.6875 39.875C34.2557 40.6061 33.661 41.1705 32.9034 41.5682C32.1458 41.9621 31.2784 42.1591 30.3011 42.1591C29.2102 42.1591 28.2519 41.9186 27.4261 41.4375C26.6004 40.9527 25.9564 40.2652 25.4943 39.375C25.036 38.4811 24.8068 37.4205 24.8068 36.1932C24.8068 35.25 24.9432 34.4091 25.2159 33.6705C25.4924 32.928 25.8788 32.2992 26.375 31.7841C26.8712 31.2689 27.4489 30.8769 28.108 30.608C28.767 30.339 29.4811 30.2045 30.25 30.2045C30.9091 30.2045 31.5227 30.3011 32.0909 30.4943C32.6591 30.6837 33.1629 30.9527 33.6023 31.3011C34.0455 31.6496 34.4072 32.0644 34.6875 32.5455C34.9678 33.0227 35.1477 33.5492 35.2273 34.125H32.7273ZM37.1378 42V33.2727H39.4844V34.7955H39.5753C39.7344 34.2538 40.0014 33.8447 40.3764 33.5682C40.7514 33.2879 41.1832 33.1477 41.6719 33.1477C41.7931 33.1477 41.9238 33.1553 42.0639 33.1705C42.2041 33.1856 42.3272 33.2064 42.4332 33.233V35.3807C42.3196 35.3466 42.1624 35.3163 41.9616 35.2898C41.7609 35.2633 41.5772 35.25 41.4105 35.25C41.0545 35.25 40.7363 35.3277 40.456 35.483C40.1795 35.6345 39.9598 35.8466 39.7969 36.1193C39.6378 36.392 39.5582 36.7064 39.5582 37.0625V42H37.1378ZM47.2216 42.1705C46.339 42.1705 45.5758 41.983 44.9318 41.608C44.2917 41.2292 43.7973 40.7027 43.4489 40.0284C43.1004 39.3504 42.9261 38.5644 42.9261 37.6705C42.9261 36.7689 43.1004 35.9811 43.4489 35.3068C43.7973 34.6288 44.2917 34.1023 44.9318 33.7273C45.5758 33.3485 46.339 33.1591 47.2216 33.1591C48.1042 33.1591 48.8655 33.3485 49.5057 33.7273C50.1496 34.1023 50.6458 34.6288 50.9943 35.3068C51.3428 35.9811 51.517 36.7689 51.517 37.6705C51.517 38.5644 51.3428 39.3504 50.9943 40.0284C50.6458 40.7027 50.1496 41.2292 49.5057 41.608C48.8655 41.983 48.1042 42.1705 47.2216 42.1705ZM47.233 40.2955C47.6345 40.2955 47.9697 40.1818 48.2386 39.9545C48.5076 39.7235 48.7102 39.4091 48.8466 39.0114C48.9867 38.6136 49.0568 38.161 49.0568 37.6534C49.0568 37.1458 48.9867 36.6932 48.8466 36.2955C48.7102 35.8977 48.5076 35.5833 48.2386 35.3523C47.9697 35.1212 47.6345 35.0057 47.233 35.0057C46.8277 35.0057 46.4867 35.1212 46.2102 35.3523C45.9375 35.5833 45.7311 35.8977 45.5909 36.2955C45.4545 36.6932 45.3864 37.1458 45.3864 37.6534C45.3864 38.161 45.4545 38.6136 45.5909 39.0114C45.7311 39.4091 45.9375 39.7235 46.2102 39.9545C46.4867 40.1818 46.8277 40.2955 47.233 40.2955ZM54.5938 42L52.2188 33.2727H54.6676L56.0199 39.1364H56.0994L57.5085 33.2727H59.9119L61.3438 39.1023H61.4176L62.7472 33.2727H65.1903L62.821 42H60.2585L58.7585 36.5114H58.6506L57.1506 42H54.5938ZM70.2301 42V30.3636H74.8892C75.7453 30.3636 76.4593 30.4905 77.0312 30.7443C77.6032 30.9981 78.0331 31.3504 78.321 31.8011C78.6089 32.2481 78.7528 32.7633 78.7528 33.3466C78.7528 33.8011 78.6619 34.2008 78.4801 34.5455C78.2983 34.8864 78.0483 35.1667 77.7301 35.3864C77.4157 35.6023 77.0559 35.7557 76.6506 35.8466V35.9602C77.0938 35.9792 77.5085 36.1042 77.8949 36.3352C78.285 36.5663 78.6013 36.8902 78.8438 37.3068C79.0862 37.7197 79.2074 38.2121 79.2074 38.7841C79.2074 39.4015 79.054 39.9527 78.7472 40.4375C78.4441 40.9186 77.9953 41.2992 77.4006 41.5795C76.8059 41.8598 76.0729 42 75.2017 42H70.2301ZM72.6903 39.9886H74.696C75.3816 39.9886 75.8816 39.858 76.196 39.5966C76.5104 39.3314 76.6676 38.9792 76.6676 38.5398C76.6676 38.2178 76.59 37.9337 76.4347 37.6875C76.2794 37.4413 76.0578 37.2481 75.7699 37.108C75.4858 36.9678 75.1468 36.8977 74.7528 36.8977H72.6903V39.9886ZM72.6903 35.233H74.5142C74.8513 35.233 75.1506 35.1742 75.4119 35.0568C75.6771 34.9356 75.8854 34.7652 76.0369 34.5455C76.1922 34.3258 76.2699 34.0625 76.2699 33.7557C76.2699 33.3352 76.1203 32.9962 75.821 32.7386C75.5256 32.4811 75.1051 32.3523 74.5597 32.3523H72.6903V35.233ZM86.3594 38.2841V33.2727H88.7798V42H86.456V40.4148H86.3651C86.1681 40.9261 85.8404 41.3371 85.3821 41.6477C84.9276 41.9583 84.3726 42.1136 83.7173 42.1136C83.134 42.1136 82.6207 41.9811 82.1776 41.7159C81.7344 41.4508 81.3878 41.0739 81.1378 40.5852C80.8916 40.0966 80.7666 39.5114 80.7628 38.8295V33.2727H83.1832V38.3977C83.187 38.9129 83.3253 39.3201 83.598 39.6193C83.8707 39.9186 84.2363 40.0682 84.6946 40.0682C84.9863 40.0682 85.259 40.0019 85.5128 39.8693C85.7666 39.733 85.9711 39.5322 86.1264 39.267C86.2855 39.0019 86.3632 38.6742 86.3594 38.2841ZM97.9773 35.7614L95.7614 35.8977C95.7235 35.7083 95.642 35.5379 95.517 35.3864C95.392 35.2311 95.2273 35.108 95.0227 35.017C94.822 34.9223 94.5814 34.875 94.3011 34.875C93.9261 34.875 93.6098 34.9545 93.3523 35.1136C93.0947 35.2689 92.9659 35.4773 92.9659 35.7386C92.9659 35.947 93.0492 36.1231 93.2159 36.267C93.3826 36.411 93.6686 36.5265 94.0739 36.6136L95.6534 36.9318C96.5019 37.1061 97.1345 37.3864 97.5511 37.7727C97.9678 38.1591 98.1761 38.6667 98.1761 39.2955C98.1761 39.8674 98.0076 40.3693 97.6705 40.8011C97.3371 41.233 96.8788 41.5701 96.2955 41.8125C95.7159 42.0511 95.0473 42.1705 94.2898 42.1705C93.1345 42.1705 92.214 41.9299 91.5284 41.4489C90.8466 40.964 90.447 40.3049 90.3295 39.4716L92.7102 39.3466C92.7822 39.6989 92.9564 39.9678 93.233 40.1534C93.5095 40.3352 93.8636 40.4261 94.2955 40.4261C94.7197 40.4261 95.0606 40.3447 95.3182 40.1818C95.5795 40.0152 95.7121 39.8011 95.7159 39.5398C95.7121 39.3201 95.6193 39.1402 95.4375 39C95.2557 38.8561 94.9754 38.7462 94.5966 38.6705L93.0852 38.3693C92.233 38.1989 91.5985 37.9034 91.1818 37.483C90.7689 37.0625 90.5625 36.5265 90.5625 35.875C90.5625 35.3144 90.714 34.8314 91.017 34.4261C91.3239 34.0208 91.7538 33.7083 92.3068 33.4886C92.8636 33.2689 93.5152 33.1591 94.2614 33.1591C95.3636 33.1591 96.2311 33.392 96.8636 33.858C97.5 34.3239 97.8712 34.9583 97.9773 35.7614ZM99.7003 42V33.2727H102.121V42H99.7003ZM100.916 32.1477C100.556 32.1477 100.248 32.0284 99.9901 31.7898C99.7363 31.5473 99.6094 31.2576 99.6094 30.9205C99.6094 30.5871 99.7363 30.3011 99.9901 30.0625C100.248 29.8201 100.556 29.6989 100.916 29.6989C101.276 29.6989 101.583 29.8201 101.837 30.0625C102.094 30.3011 102.223 30.5871 102.223 30.9205C102.223 31.2576 102.094 31.5473 101.837 31.7898C101.583 32.0284 101.276 32.1477 100.916 32.1477ZM106.48 36.9545V42H104.06V33.2727H106.366V34.8125H106.469C106.662 34.3049 106.986 33.9034 107.44 33.608C107.895 33.3087 108.446 33.1591 109.094 33.1591C109.7 33.1591 110.228 33.2917 110.679 33.5568C111.13 33.822 111.48 34.2008 111.73 34.6932C111.98 35.1818 112.105 35.7652 112.105 36.4432V42H109.685V36.875C109.688 36.3409 109.552 35.9242 109.276 35.625C108.999 35.322 108.618 35.1705 108.134 35.1705C107.808 35.1705 107.52 35.2405 107.27 35.3807C107.024 35.5208 106.83 35.7254 106.69 35.9943C106.554 36.2595 106.484 36.5795 106.48 36.9545ZM117.99 42.1705C117.092 42.1705 116.32 41.9886 115.672 41.625C115.028 41.2576 114.532 40.7386 114.183 40.0682C113.835 39.3939 113.661 38.5966 113.661 37.6761C113.661 36.7784 113.835 35.9905 114.183 35.3125C114.532 34.6345 115.022 34.1061 115.655 33.7273C116.291 33.3485 117.037 33.1591 117.893 33.1591C118.469 33.1591 119.005 33.2519 119.501 33.4375C120.001 33.6193 120.437 33.8939 120.808 34.2614C121.183 34.6288 121.475 35.0909 121.683 35.6477C121.892 36.2008 121.996 36.8485 121.996 37.5909V38.2557H114.626V36.7557H119.717C119.717 36.4072 119.642 36.0985 119.49 35.8295C119.339 35.5606 119.128 35.3504 118.859 35.1989C118.594 35.0436 118.286 34.9659 117.933 34.9659C117.566 34.9659 117.24 35.0511 116.956 35.2216C116.676 35.3883 116.456 35.6136 116.297 35.8977C116.138 36.178 116.056 36.4905 116.053 36.8352V38.2614C116.053 38.6932 116.132 39.0663 116.291 39.3807C116.454 39.6951 116.683 39.9375 116.979 40.108C117.274 40.2784 117.625 40.3636 118.03 40.3636C118.299 40.3636 118.545 40.3258 118.768 40.25C118.992 40.1742 119.183 40.0606 119.342 39.9091C119.501 39.7576 119.623 39.572 119.706 39.3523L121.945 39.5C121.831 40.0379 121.598 40.5076 121.246 40.9091C120.897 41.3068 120.446 41.6174 119.893 41.8409C119.344 42.0606 118.71 42.1705 117.99 42.1705ZM130.837 35.7614L128.621 35.8977C128.583 35.7083 128.501 35.5379 128.376 35.3864C128.251 35.2311 128.087 35.108 127.882 35.017C127.681 34.9223 127.441 34.875 127.161 34.875C126.786 34.875 126.469 34.9545 126.212 35.1136C125.954 35.2689 125.825 35.4773 125.825 35.7386C125.825 35.947 125.909 36.1231 126.075 36.267C126.242 36.411 126.528 36.5265 126.933 36.6136L128.513 36.9318C129.361 37.1061 129.994 37.3864 130.411 37.7727C130.827 38.1591 131.036 38.6667 131.036 39.2955C131.036 39.8674 130.867 40.3693 130.53 40.8011C130.196 41.233 129.738 41.5701 129.155 41.8125C128.575 42.0511 127.907 42.1705 127.149 42.1705C125.994 42.1705 125.073 41.9299 124.388 41.4489C123.706 40.964 123.306 40.3049 123.189 39.4716L125.57 39.3466C125.642 39.6989 125.816 39.9678 126.092 40.1534C126.369 40.3352 126.723 40.4261 127.155 40.4261C127.579 40.4261 127.92 40.3447 128.178 40.1818C128.439 40.0152 128.571 39.8011 128.575 39.5398C128.571 39.3201 128.479 39.1402 128.297 39C128.115 38.8561 127.835 38.7462 127.456 38.6705L125.945 38.3693C125.092 38.1989 124.458 37.9034 124.041 37.483C123.628 37.0625 123.422 36.5265 123.422 35.875C123.422 35.3144 123.573 34.8314 123.876 34.4261C124.183 34.0208 124.613 33.7083 125.166 33.4886C125.723 33.2689 126.375 33.1591 127.121 33.1591C128.223 33.1591 129.09 33.392 129.723 33.858C130.359 34.3239 130.731 34.9583 130.837 35.7614ZM139.821 35.7614L137.605 35.8977C137.567 35.7083 137.486 35.5379 137.361 35.3864C137.236 35.2311 137.071 35.108 136.866 35.017C136.666 34.9223 136.425 34.875 136.145 34.875C135.77 34.875 135.454 34.9545 135.196 35.1136C134.938 35.2689 134.81 35.4773 134.81 35.7386C134.81 35.947 134.893 36.1231 135.06 36.267C135.226 36.411 135.512 36.5265 135.918 36.6136L137.497 36.9318C138.346 37.1061 138.978 37.3864 139.395 37.7727C139.812 38.1591 140.02 38.6667 140.02 39.2955C140.02 39.8674 139.851 40.3693 139.514 40.8011C139.181 41.233 138.723 41.5701 138.139 41.8125C137.56 42.0511 136.891 42.1705 136.134 42.1705C134.978 42.1705 134.058 41.9299 133.372 41.4489C132.69 40.964 132.291 40.3049 132.173 39.4716L134.554 39.3466C134.626 39.6989 134.8 39.9678 135.077 40.1534C135.353 40.3352 135.707 40.4261 136.139 40.4261C136.563 40.4261 136.904 40.3447 137.162 40.1818C137.423 40.0152 137.556 39.8011 137.56 39.5398C137.556 39.3201 137.463 39.1402 137.281 39C137.099 38.8561 136.819 38.7462 136.44 38.6705L134.929 38.3693C134.077 38.1989 133.442 37.9034 133.026 37.483C132.613 37.0625 132.406 36.5265 132.406 35.875C132.406 35.3144 132.558 34.8314 132.861 34.4261C133.168 34.0208 133.598 33.7083 134.151 33.4886C134.707 33.2689 135.359 33.1591 136.105 33.1591C137.207 33.1591 138.075 33.392 138.707 33.858C139.344 34.3239 139.715 34.9583 139.821 35.7614Z" fill="white"/>
<rect x="24" y="104" width="112" height="36" rx="4" fill="#D9E4FF"/>
<path d="M58.8996 127V116.818H62.34C63.1354 116.818 63.7884 116.954 64.2988 117.226C64.8092 117.494 65.187 117.864 65.4323 118.335C65.6776 118.805 65.8002 119.34 65.8002 119.94C65.8002 120.54 65.6776 121.072 65.4323 121.536C65.187 122 64.8109 122.365 64.3038 122.63C63.7967 122.892 63.1487 123.023 62.3599 123.023H59.5758V121.909H62.3201C62.8637 121.909 63.3012 121.83 63.6326 121.67C63.9673 121.511 64.2093 121.286 64.3584 120.994C64.5109 120.699 64.5871 120.348 64.5871 119.94C64.5871 119.533 64.5109 119.176 64.3584 118.871C64.206 118.567 63.9624 118.331 63.6276 118.165C63.2929 117.996 62.8504 117.912 62.3002 117.912H60.1326V127H58.8996ZM63.6923 122.426L66.1979 127H64.7661L62.3002 122.426H63.6923ZM70.8153 127.159C70.0795 127.159 69.4448 126.997 68.9112 126.672C68.3809 126.344 67.9716 125.886 67.6832 125.3C67.3982 124.71 67.2556 124.024 67.2556 123.241C67.2556 122.459 67.3982 121.77 67.6832 121.173C67.9716 120.573 68.3726 120.106 68.8863 119.771C69.4034 119.433 70.0066 119.264 70.696 119.264C71.0937 119.264 71.4865 119.33 71.8743 119.463C72.262 119.596 72.615 119.811 72.9332 120.109C73.2514 120.404 73.5049 120.795 73.6939 121.283C73.8828 121.77 73.9772 122.37 73.9772 123.082V123.58H68.0909V122.565H72.7841C72.7841 122.134 72.6979 121.75 72.5255 121.412C72.3565 121.074 72.1145 120.807 71.7997 120.612C71.4881 120.416 71.1202 120.318 70.696 120.318C70.2287 120.318 69.8243 120.434 69.4829 120.666C69.1448 120.895 68.8847 121.193 68.7024 121.561C68.5201 121.929 68.4289 122.323 68.4289 122.744V123.42C68.4289 123.997 68.5284 124.486 68.7272 124.887C68.9294 125.285 69.2095 125.588 69.5674 125.797C69.9254 126.002 70.3413 126.105 70.8153 126.105C71.1235 126.105 71.402 126.062 71.6505 125.976C71.9024 125.886 72.1195 125.754 72.3018 125.578C72.4841 125.399 72.625 125.177 72.7244 124.912L73.8579 125.23C73.7386 125.615 73.5381 125.953 73.2564 126.244C72.9746 126.533 72.6266 126.758 72.2123 126.92C71.798 127.08 71.3323 127.159 70.8153 127.159ZM78.0092 127.179C77.5253 127.179 77.0861 127.088 76.6917 126.906C76.2973 126.72 75.9841 126.453 75.7521 126.105C75.5201 125.754 75.4041 125.33 75.4041 124.832C75.4041 124.395 75.4903 124.04 75.6626 123.768C75.835 123.493 76.0653 123.278 76.3537 123.122C76.642 122.966 76.9602 122.85 77.3082 122.774C77.6595 122.695 78.0125 122.632 78.3671 122.585C78.8312 122.526 79.2073 122.481 79.4957 122.451C79.7874 122.418 79.9995 122.363 80.1321 122.287C80.268 122.211 80.3359 122.078 80.3359 121.889V121.849C80.3359 121.359 80.2017 120.978 79.9332 120.706C79.668 120.434 79.2653 120.298 78.7251 120.298C78.165 120.298 77.7258 120.421 77.4076 120.666C77.0894 120.911 76.8657 121.173 76.7365 121.452L75.6228 121.054C75.8217 120.59 76.0868 120.229 76.4183 119.97C76.753 119.708 77.1176 119.526 77.512 119.423C77.9098 119.317 78.3009 119.264 78.6853 119.264C78.9306 119.264 79.2123 119.294 79.5305 119.354C79.852 119.41 80.1619 119.528 80.4602 119.707C80.7618 119.886 81.012 120.156 81.2109 120.517C81.4098 120.878 81.5092 121.362 81.5092 121.969V127H80.3359V125.966H80.2762C80.1967 126.132 80.0641 126.309 79.8785 126.498C79.6929 126.687 79.446 126.848 79.1377 126.98C78.8295 127.113 78.4533 127.179 78.0092 127.179ZM78.1882 126.125C78.6522 126.125 79.0433 126.034 79.3615 125.852C79.683 125.669 79.9249 125.434 80.0873 125.146C80.253 124.857 80.3359 124.554 80.3359 124.236V123.162C80.2862 123.222 80.1768 123.276 80.0078 123.326C79.8421 123.372 79.6498 123.414 79.4311 123.45C79.2156 123.483 79.0052 123.513 78.7997 123.54C78.5975 123.563 78.4334 123.583 78.3075 123.599C78.0026 123.639 77.7175 123.704 77.4524 123.793C77.1905 123.879 76.9784 124.01 76.816 124.186C76.6569 124.358 76.5774 124.594 76.5774 124.892C76.5774 125.3 76.7282 125.608 77.0298 125.817C77.3347 126.022 77.7208 126.125 78.1882 126.125ZM86.5342 127.159C85.8979 127.159 85.3361 126.998 84.8489 126.677C84.3616 126.352 83.9805 125.895 83.7054 125.305C83.4303 124.711 83.2928 124.01 83.2928 123.202C83.2928 122.4 83.4303 121.704 83.7054 121.114C83.9805 120.524 84.3633 120.068 84.8538 119.746C85.3444 119.425 85.9111 119.264 86.5541 119.264C87.0513 119.264 87.444 119.347 87.7324 119.513C88.024 119.675 88.2461 119.861 88.3986 120.07C88.5544 120.275 88.6753 120.444 88.7615 120.577H88.8609V116.818H90.0342V127H88.9007V125.827H88.7615C88.6753 125.966 88.5527 126.142 88.3936 126.354C88.2345 126.562 88.0075 126.75 87.7125 126.915C87.4175 127.078 87.0248 127.159 86.5342 127.159ZM86.6933 126.105C87.164 126.105 87.5617 125.982 87.8865 125.737C88.2113 125.489 88.4582 125.146 88.6273 124.708C88.7963 124.267 88.8808 123.759 88.8808 123.182C88.8808 122.612 88.798 122.113 88.6322 121.685C88.4665 121.254 88.2213 120.92 87.8964 120.681C87.5716 120.439 87.1706 120.318 86.6933 120.318C86.1962 120.318 85.7819 120.446 85.4504 120.701C85.1223 120.953 84.8754 121.296 84.7097 121.73C84.5473 122.161 84.466 122.645 84.466 123.182C84.466 123.725 84.5489 124.219 84.7146 124.663C84.8837 125.104 85.1322 125.455 85.4604 125.717C85.7918 125.976 86.2028 126.105 86.6933 126.105ZM96.4426 116.818H97.9142L101.374 125.27H101.494L104.954 116.818H106.426V127H105.272V119.264H105.173L101.991 127H100.877L97.6955 119.264H97.596V127H96.4426V116.818ZM111.841 127.159C111.151 127.159 110.547 126.995 110.026 126.667C109.509 126.339 109.105 125.88 108.813 125.29C108.525 124.7 108.381 124.01 108.381 123.222C108.381 122.426 108.525 121.732 108.813 121.138C109.105 120.545 109.509 120.085 110.026 119.756C110.547 119.428 111.151 119.264 111.841 119.264C112.53 119.264 113.133 119.428 113.651 119.756C114.171 120.085 114.575 120.545 114.864 121.138C115.155 121.732 115.301 122.426 115.301 123.222C115.301 124.01 115.155 124.7 114.864 125.29C114.575 125.88 114.171 126.339 113.651 126.667C113.133 126.995 112.53 127.159 111.841 127.159ZM111.841 126.105C112.365 126.105 112.795 125.971 113.133 125.702C113.472 125.434 113.722 125.081 113.884 124.643C114.047 124.206 114.128 123.732 114.128 123.222C114.128 122.711 114.047 122.236 113.884 121.795C113.722 121.354 113.472 120.998 113.133 120.726C112.795 120.454 112.365 120.318 111.841 120.318C111.317 120.318 110.886 120.454 110.548 120.726C110.21 120.998 109.96 121.354 109.798 121.795C109.635 122.236 109.554 122.711 109.554 123.222C109.554 123.732 109.635 124.206 109.798 124.643C109.96 125.081 110.21 125.434 110.548 125.702C110.886 125.971 111.317 126.105 111.841 126.105ZM117.092 127V119.364H118.226V120.517H118.305C118.444 120.139 118.696 119.833 119.061 119.597C119.425 119.362 119.836 119.244 120.294 119.244C120.38 119.244 120.488 119.246 120.617 119.249C120.746 119.253 120.844 119.258 120.91 119.264V120.457C120.871 120.447 120.779 120.433 120.637 120.413C120.498 120.389 120.35 120.378 120.194 120.378C119.823 120.378 119.492 120.456 119.2 120.612C118.912 120.764 118.683 120.976 118.514 121.248C118.348 121.516 118.265 121.823 118.265 122.168V127H117.092ZM125.27 127.159C124.535 127.159 123.9 126.997 123.366 126.672C122.836 126.344 122.427 125.886 122.138 125.3C121.853 124.71 121.711 124.024 121.711 123.241C121.711 122.459 121.853 121.77 122.138 121.173C122.427 120.573 122.828 120.106 123.341 119.771C123.858 119.433 124.462 119.264 125.151 119.264C125.549 119.264 125.942 119.33 126.329 119.463C126.717 119.596 127.07 119.811 127.388 120.109C127.706 120.404 127.96 120.795 128.149 121.283C128.338 121.77 128.432 122.37 128.432 123.082V123.58H122.546V122.565H127.239C127.239 122.134 127.153 121.75 126.981 121.412C126.812 121.074 126.57 120.807 126.255 120.612C125.943 120.416 125.575 120.318 125.151 120.318C124.684 120.318 124.279 120.434 123.938 120.666C123.6 120.895 123.34 121.193 123.157 121.561C122.975 121.929 122.884 122.323 122.884 122.744V123.42C122.884 123.997 122.983 124.486 123.182 124.887C123.384 125.285 123.665 125.588 124.023 125.797C124.38 126.002 124.796 126.105 125.27 126.105C125.579 126.105 125.857 126.062 126.106 125.976C126.358 125.886 126.575 125.754 126.757 125.578C126.939 125.399 127.08 125.177 127.179 124.912L128.313 125.23C128.194 125.615 127.993 125.953 127.711 126.244C127.43 126.533 127.082 126.758 126.667 126.92C126.253 127.08 125.787 127.159 125.27 127.159Z" fill="#1E5EFF"/>
</g>
<defs>
<clipPath id="clip0_0_7817">
<rect width="218" height="164" fill="white"/>
</clipPath>
<clipPath id="clip1_0_7817">
<rect width="218" height="164" fill="white"/>
</clipPath>
</defs>
</svg>
